<svg version="1.1" xmlns="http://www.w3.org/2000/svg" xmlns:xlink="http://www.w3.org/1999/xlink" width="763.69988" height="460.10047" viewBox="0,0,763.69988,460.10047"><g transform="translate(119.79027,71.18378)"><g data-paper-data="{&quot;isPaintingLayer&quot;:true}" stroke-miterlimit="10" stroke-dasharray="" stroke-dashoffset="0" style="mix-blend-mode: normal"><path d="M207.87406,180.00002v0c0,-17.7427 14.3833,-32.126 32.12597,-32.126v0c8.52035,0 16.69172,3.3847 22.71649,9.40948c6.02481,6.02481 9.40949,14.19617 9.40949,22.71652v0c0,17.74267 -14.38328,32.12598 -32.12598,32.12598v0c-17.74267,0 -32.12597,-14.3833 -32.12597,-32.12598z" data-paper-data="{&quot;origPos&quot;:null}" fill-opacity="0" fill="#000000" fill-rule="evenodd" stroke="#000000" stroke-width="1" stroke-linecap="square" stroke-linejoin="miter"/><path d="M207.87406,180.00002v0c0,-17.7427 14.3833,-32.126 32.12597,-32.126v0c8.52035,0 16.69172,3.3847 22.71649,9.40948c6.02481,6.02481 9.40949,14.19617 9.40949,22.71652v0c0,17.74267 -14.38328,32.12598 -32.12598,32.12598v0c-17.74267,0 -32.12597,-14.3833 -32.12597,-32.12598z" data-paper-data="{&quot;origPos&quot;:null}" fill="none" fill-rule="evenodd" stroke="#ffffff" stroke-width="2" stroke-linecap="butt" stroke-linejoin="round"/><path d="M210.00005,191.20867c15,0 22.5,-5.81891 30,-11.63779c7.5,-5.81891 15,-11.63778 30,-11.63778" data-paper-data="{&quot;origPos&quot;:null}" fill-opacity="0" fill="#000000" fill-rule="evenodd" stroke="#ffffff" stroke-width="1" stroke-linecap="square" stroke-linejoin="miter"/><path d="M210.00005,191.20867c15,0 22.5,-5.81891 30,-11.63779c7.5,-5.81891 15,-11.63778 30,-11.63778" data-paper-data="{&quot;origPos&quot;:null}" fill="none" fill-rule="evenodd" stroke="#ffffff" stroke-width="2" stroke-linecap="butt" stroke-linejoin="round"/><path d="M208.7507,182.34251c14.24408,0 21.36612,-5.47244 28.48819,-10.94488c7.12204,-5.47241 14.24408,-10.94485 28.48819,-10.94485" data-paper-data="{&quot;origPos&quot;:null}" fill-opacity="0" fill="#000000" fill-rule="evenodd" stroke="#ffffff" stroke-width="1" stroke-linecap="square" stroke-linejoin="miter"/><path d="M208.7507,182.34251c14.24408,0 21.36612,-5.47244 28.48819,-10.94488c7.12204,-5.47241 14.24408,-10.94485 28.48819,-10.94485" data-paper-data="{&quot;origPos&quot;:null}" fill="none" fill-rule="evenodd" stroke="#ffffff" stroke-width="2" stroke-linecap="butt" stroke-linejoin="round"/><path d="M214.25202,198.77822c14.24408,0 21.36612,-5.47244 28.48819,-10.94488c7.12204,-5.47244 14.24408,-10.94488 28.48819,-10.94488" data-paper-data="{&quot;origPos&quot;:null}" fill-opacity="0" fill="#000000" fill-rule="evenodd" stroke="#ffffff" stroke-width="1" stroke-linecap="square" stroke-linejoin="miter"/><path d="M214.25202,198.77822c14.24408,0 21.36612,-5.47244 28.48819,-10.94488c7.12204,-5.47244 14.24408,-10.94488 28.48819,-10.94488" data-paper-data="{&quot;origPos&quot;:null}" fill="none" fill-rule="evenodd" stroke="#ffffff" stroke-width="2" stroke-linecap="butt" stroke-linejoin="round"/><path d="M221.349,205.95463c8.25598,0 12.37809,-3.37796 16.51194,-6.75592c4.13388,-3.37796 8.27948,-6.75589 16.55893,-6.75589" data-paper-data="{&quot;origPos&quot;:null}" fill-opacity="0" fill="#000000" fill-rule="evenodd" stroke="#ffffff" stroke-width="1" stroke-linecap="square" stroke-linejoin="miter"/><path d="M221.349,205.95463c8.25598,0 12.37809,-3.37796 16.51194,-6.75592c4.13388,-3.37796 8.27948,-6.75589 16.55893,-6.75589" data-paper-data="{&quot;origPos&quot;:null}" fill="none" fill-rule="evenodd" stroke="#ffffff" stroke-width="2" stroke-linecap="butt" stroke-linejoin="round"/><path d="M260.94282,198.50307v0c0.02328,2.31036 -1.60049,4.2395 -3.72201,4.42194l-0.34153,-4.39612z" data-paper-data="{&quot;origPos&quot;:null}" fill-opacity="0" fill="#000000" fill-rule="evenodd" stroke="none" stroke-width="0" stroke-linecap="square" stroke-linejoin="miter"/><path d="M260.94282,198.50307v0c0.02328,2.31036 -1.6005,4.2395 -3.72201,4.42194" data-paper-data="{&quot;origPos&quot;:null}" fill-opacity="0" fill="#000000" fill-rule="evenodd" stroke="#000000" stroke-width="1" stroke-linecap="square" stroke-linejoin="miter"/><path d="M260.94282,198.50307v0c0.02328,2.31036 -1.6005,4.2395 -3.72201,4.42194" data-paper-data="{&quot;origPos&quot;:null}" fill="none" fill-rule="evenodd" stroke="#ffffff" stroke-width="2" stroke-linecap="butt" stroke-linejoin="round"/><path d="M254.4199,192.44283v0c3.6268,0.03479 6.54577,2.80567 6.51968,6.18896l-6.56692,-0.06299z" data-paper-data="{&quot;origPos&quot;:null}" fill-opacity="0" fill="#000000" fill-rule="evenodd" stroke="none" stroke-width="0" stroke-linecap="square" stroke-linejoin="miter"/><path d="M254.4199,192.44283v0c3.6268,0.03479 6.54577,2.80567 6.51968,6.18896" data-paper-data="{&quot;origPos&quot;:null}" fill-opacity="0" fill="#000000" fill-rule="evenodd" stroke="#ffffff" stroke-width="1" stroke-linecap="square" stroke-linejoin="miter"/><path d="M254.4199,192.44283v0c3.6268,0.03479 6.54577,2.80567 6.51968,6.18896" data-paper-data="{&quot;origPos&quot;:null}" fill="none" fill-rule="evenodd" stroke="#ffffff" stroke-width="2" stroke-linecap="butt" stroke-linejoin="round"/><path d="M257.55161,202.94457v0c-1.13455,0.04477 -2.22687,-0.3321 -3.01022,-1.03858l2.92569,-2.51962z" data-paper-data="{&quot;origPos&quot;:null}" fill-opacity="0" fill="#000000" fill-rule="evenodd" stroke="none" stroke-width="0" stroke-linecap="square" stroke-linejoin="miter"/><path d="M257.55161,202.94457v0c-1.13455,0.04477 -2.22687,-0.3321 -3.01022,-1.03858" data-paper-data="{&quot;origPos&quot;:null}" fill-opacity="0" fill="#000000" fill-rule="evenodd" stroke="#ffffff" stroke-width="1" stroke-linecap="square" stroke-linejoin="miter"/><path d="M257.55161,202.94457v0c-1.13455,0.04477 -2.22687,-0.3321 -3.01022,-1.03858" data-paper-data="{&quot;origPos&quot;:null}" fill="none" fill-rule="evenodd" stroke="#ffffff" stroke-width="2" stroke-linecap="butt" stroke-linejoin="round"/><path d="M255.00426,202.20547v0c-0.62421,-0.28833 -1.04886,-0.87967 -1.13852,-1.58545c-0.08969,-0.70581 0.16678,-1.43795 0.68763,-1.96298l1.46691,1.51757z" data-paper-data="{&quot;origPos&quot;:null}" fill-opacity="0" fill="#000000" fill-rule="evenodd" stroke="none" stroke-width="0" stroke-linecap="square" stroke-linejoin="miter"/><path d="M255.00426,202.20547v0c-0.62421,-0.28833 -1.04886,-0.87967 -1.13852,-1.58545c-0.08969,-0.70581 0.16678,-1.43795 0.68762,-1.96298" data-paper-data="{&quot;origPos&quot;:null}" fill-opacity="0" fill="#000000" fill-rule="evenodd" stroke="#ffffff" stroke-width="1" stroke-linecap="square" stroke-linejoin="miter"/><path d="M255.00426,202.20547v0c-0.62421,-0.28833 -1.04886,-0.87967 -1.13852,-1.58545c-0.08969,-0.70581 0.16678,-1.43795 0.68762,-1.96298" data-paper-data="{&quot;origPos&quot;:null}" fill="none" fill-rule="evenodd" stroke="#ffffff" stroke-width="2" stroke-linecap="butt" stroke-linejoin="round"/><path d="M254.33232,198.88429v0c0.33624,-0.48034 0.87317,-0.78863 1.48254,-0.85122c0.60935,-0.06259 1.23642,0.12612 1.73145,0.52111l-1.33997,1.63721z" data-paper-data="{&quot;origPos&quot;:null}" fill-opacity="0" fill="#000000" fill-rule="evenodd" stroke="none" stroke-width="0" stroke-linecap="square" stroke-linejoin="miter"/><path d="M254.33232,198.88429v0c0.33624,-0.48034 0.87317,-0.78863 1.48254,-0.85122c0.60935,-0.06259 1.23642,0.12612 1.73145,0.52111" data-paper-data="{&quot;origPos&quot;:null}" fill-opacity="0" fill="#000000" fill-rule="evenodd" stroke="#ffffff" stroke-width="1" stroke-linecap="square" stroke-linejoin="miter"/><path d="M254.33232,198.88429v0c0.33624,-0.48034 0.87317,-0.78863 1.48254,-0.85122c0.60935,-0.06259 1.23642,0.12612 1.73145,0.52111" data-paper-data="{&quot;origPos&quot;:null}" fill="none" fill-rule="evenodd" stroke="#ffffff" stroke-width="2" stroke-linecap="butt" stroke-linejoin="round"/><path d="M227.65343,162.74834l-0.13828,-6.69242c3.3833,-0.05972 6.1879,2.88816 6.26428,6.58429v0z" data-paper-data="{&quot;origPos&quot;:null}" fill="none" fill-rule="evenodd" stroke="#000000" stroke-width="0" stroke-linecap="square" stroke-linejoin="miter"/><path d="M227.51514,156.05593c3.3833,-0.05972 6.1879,2.88816 6.26428,6.58429v0" data-paper-data="{&quot;origPos&quot;:null}" fill-opacity="0" fill="#000000" fill-rule="evenodd" stroke="#000000" stroke-width="1" stroke-linecap="square" stroke-linejoin="miter"/><path d="M227.51514,156.05593c3.3833,-0.05972 6.1879,2.88816 6.26428,6.58429v0" data-paper-data="{&quot;origPos&quot;:null}" fill="none" fill-rule="evenodd" stroke="#ffffff" stroke-width="2" stroke-linecap="butt" stroke-linejoin="round"/><path d="M226.5827,160.17471l-2.72433,2.7814c-0.6484,-0.84097 -0.95022,-1.96756 -0.83261,-3.10794v0z" data-paper-data="{&quot;origPos&quot;:null}" fill-opacity="0" fill="#000000" fill-rule="evenodd" stroke="none" stroke-width="0" stroke-linecap="square" stroke-linejoin="miter"/><path d="M223.85837,162.95611c-0.6484,-0.84097 -0.95022,-1.96756 -0.83261,-3.10794v0" data-paper-data="{&quot;origPos&quot;:null}" fill-opacity="0" fill="#000000" fill-rule="evenodd" stroke="#ffffff" stroke-width="1" stroke-linecap="square" stroke-linejoin="miter"/><path d="M225.85963,161.532l1.64847,1.59069c-0.55979,0.57492 -1.34509,0.86267 -2.10563,0.77151c-0.7605,-0.09113 -1.40136,-0.54977 -1.71829,-1.22976v0z" data-paper-data="{&quot;origPos&quot;:null}" fill-opacity="0" fill="#000000" fill-rule="evenodd" stroke="#000000" stroke-width="0" stroke-linecap="square" stroke-linejoin="miter"/><path d="M227.50811,163.1227c-0.55979,0.57492 -1.34509,0.86267 -2.10563,0.77151c-0.7605,-0.09113 -1.40136,-0.54977 -1.71829,-1.22976v0" data-paper-data="{&quot;origPos&quot;:null}" fill-opacity="0" fill="#000000" fill-rule="evenodd" stroke="#ffffff" stroke-width="1" stroke-linecap="square" stroke-linejoin="miter"/><path d="M226.07266,161.34594l1.62106,-1.38458c0.3992,0.4982 0.59391,1.13342 0.5376,1.75396c-0.0563,0.62054 -0.35855,1.17072 -0.83456,1.51917v0z" data-paper-data="{&quot;origPos&quot;:null}" fill-opacity="0" fill="#000000" fill-rule="evenodd" stroke="none" stroke-width="0" stroke-linecap="square" stroke-linejoin="miter"/><path d="M227.69372,159.96136c0.3992,0.4982 0.59391,1.13342 0.5376,1.75396c-0.0563,0.62054 -0.35855,1.17072 -0.83456,1.51917v0" data-paper-data="{&quot;origPos&quot;:null}" fill-opacity="0" fill="#000000" fill-rule="evenodd" stroke="#ffffff" stroke-width="1" stroke-linecap="square" stroke-linejoin="miter"/><path d="M227.52879,160.36101l-4.48126,-0.3114c0.16062,-2.26532 2.17224,-4.00052 4.56958,-3.94174v0z" data-paper-data="{&quot;origPos&quot;:null}" fill-opacity="0" fill="#000000" fill-rule="evenodd" stroke="none" stroke-width="0" stroke-linecap="square" stroke-linejoin="miter"/><path d="M223.04751,160.0496c0.16062,-2.26532 2.17224,-4.00052 4.56958,-3.94174v0" data-paper-data="{&quot;origPos&quot;:null}" fill-opacity="0" fill="#000000" fill-rule="evenodd" stroke="#ffffff" stroke-width="1" stroke-linecap="square" stroke-linejoin="miter"/><path d="M223.04751,160.0496c0.16062,-2.26532 2.17224,-4.00052 4.56958,-3.94174v0" data-paper-data="{&quot;origPos&quot;:null}" fill="none" fill-rule="evenodd" stroke="#ffffff" stroke-width="2" stroke-linecap="butt" stroke-linejoin="round"/><path d="M233.77943,162.64022c0.00592,6.16123 -12.13791,12.32043 -24.28772,12.31842" data-paper-data="{&quot;origPos&quot;:null}" fill-opacity="0" fill="#000000" fill-rule="evenodd" stroke="#ffffff" stroke-width="1" stroke-linecap="square" stroke-linejoin="miter"/><path d="M233.77943,162.64022c0.00592,6.16123 -12.13791,12.32043 -24.28772,12.31842" data-paper-data="{&quot;origPos&quot;:null}" fill="none" fill-rule="evenodd" stroke="#ffffff" stroke-width="2" stroke-linecap="butt" stroke-linejoin="round"/><path d="M-119.79027,388.91669v-460.10047h763.69988v460.10047z" fill="none" fill-rule="nonzero" stroke="none" stroke-width="2" stroke-linecap="butt" stroke-linejoin="miter"/></g></g></svg>