<svg version="1.1" xmlns="http://www.w3.org/2000/svg" xmlns:xlink="http://www.w3.org/1999/xlink" width="763.69988" height="460.10047" viewBox="0,0,763.69988,460.10047"><g transform="translate(119.79027,71.18378)"><g data-paper-data="{&quot;isPaintingLayer&quot;:true}" fill="none" stroke-miterlimit="10" stroke-dasharray="" stroke-dashoffset="0" style="mix-blend-mode: normal"><path d="M208.20737,180.09001v0c0,-17.74269 14.3833,-32.12599 32.12598,-32.12599v0c8.52035,0 16.69171,3.3847 22.71652,9.40948c6.02478,6.0248 9.40945,14.19617 9.40945,22.71651v0c0,17.74269 -14.38328,32.12598 -32.12598,32.12598v0c-17.74267,0 -32.12598,-14.38329 -32.12598,-32.12598z" fill-rule="evenodd" stroke="#000000" stroke-width="1" stroke-linecap="square" stroke-linejoin="miter"/><path d="M208.20737,180.09001v0c0,-17.74269 14.3833,-32.12599 32.12598,-32.12599v0c8.52035,0 16.69171,3.3847 22.71652,9.40948c6.02478,6.0248 9.40945,14.19617 9.40945,22.71651v0c0,17.74269 -14.38328,32.12598 -32.12598,32.12598v0c-17.74267,0 -32.12598,-14.38329 -32.12598,-32.12598z" fill-rule="evenodd" stroke="#ffffff" stroke-width="2" stroke-linecap="butt" stroke-linejoin="round"/><path d="M238.23341,212.2883v0c0.4469,-5.64495 4.35123,-10.92621 10.43149,-14.11031c6.08026,-3.18409 13.5512,-3.85985 19.96069,-1.80543l-9.03717,15.91075z" fill-rule="evenodd" stroke="none" stroke-width="0" stroke-linecap="square" stroke-linejoin="miter"/><path d="M238.23341,212.2883v0c0.4469,-5.64495 4.35123,-10.92621 10.43149,-14.11031c6.08026,-3.18409 13.5512,-3.85985 19.96069,-1.80543" fill-rule="evenodd" stroke="#ffffff" stroke-width="1" stroke-linecap="square" stroke-linejoin="miter"/><path d="M238.23341,212.2883v0c0.4469,-5.64495 4.35123,-10.92621 10.43149,-14.11031c6.08026,-3.18409 13.5512,-3.85985 19.96069,-1.80543" fill-rule="evenodd" stroke="#ffffff" stroke-width="2" stroke-linecap="butt" stroke-linejoin="round"/><path d="M222.21651,205.30124c4.79438,-5.93225 14.19071,-7.60211 23.05322,-4.09689l-5.4415,16.165z" fill-rule="evenodd" stroke="none" stroke-width="0" stroke-linecap="square" stroke-linejoin="miter"/><path d="M222.21651,205.30124c4.79438,-5.93225 14.19071,-7.60211 23.05322,-4.0969" fill-rule="evenodd" stroke="#ffffff" stroke-width="1" stroke-linecap="square" stroke-linejoin="miter"/><path d="M222.21651,205.30124c4.79438,-5.93225 14.19071,-7.60211 23.05322,-4.0969" fill-rule="evenodd" stroke="#ffffff" stroke-width="2" stroke-linecap="butt" stroke-linejoin="round"/><path d="M238.95091,199.95001v0c-0.23978,-6.6342 3.83451,-12.13571 10.56516,-14.26623c6.73068,-2.13053 14.99612,-0.53502 21.43347,4.13741l-11.36279,12.91562z" fill-rule="evenodd" stroke="none" stroke-width="0" stroke-linecap="square" stroke-linejoin="miter"/><path d="M238.95091,199.95001v0c-0.23978,-6.6342 3.83451,-12.13571 10.56516,-14.26623c6.73068,-2.13053 14.99612,-0.53502 21.43347,4.13741" fill-rule="evenodd" stroke="#ffffff" stroke-width="1" stroke-linecap="square" stroke-linejoin="miter"/><path d="M238.95091,199.95001v0c-0.23978,-6.6342 3.83451,-12.13571 10.56516,-14.26623c6.73068,-2.13053 14.99612,-0.53502 21.43347,4.13741" fill-rule="evenodd" stroke="#ffffff" stroke-width="2" stroke-linecap="butt" stroke-linejoin="round"/><path d="M212.63185,194.30876c2.61987,-5.94146 8.86902,-10.58355 16.38681,-12.17274c7.51782,-1.58919 15.1583,0.11679 20.03528,4.47349l-16.39694,12.12647z" fill-rule="evenodd" stroke="none" stroke-width="0" stroke-linecap="square" stroke-linejoin="miter"/><path d="M212.51361,194.30876c2.61987,-5.94146 8.86902,-10.58356 16.38681,-12.17275c7.51782,-1.58919 15.1583,0.11679 20.03528,4.4735" fill-rule="evenodd" stroke="#ffffff" stroke-width="1" stroke-linecap="square" stroke-linejoin="miter"/><path d="M212.51361,194.30876c2.61987,-5.94146 8.86902,-10.58356 16.38681,-12.17275c7.51782,-1.58919 15.1583,0.11679 20.03528,4.4735" fill-rule="evenodd" stroke="#ffffff" stroke-width="2" stroke-linecap="butt" stroke-linejoin="round"/><path d="M221.87787,184.99301v0c4.17349,-7.52474 11.91803,-13.01172 21.42932,-15.18263c9.51132,-2.17092 19.95881,-0.83619 28.90851,3.69325l-16.85025,26.73935z" fill-rule="evenodd" stroke="none" stroke-width="0" stroke-linecap="square" stroke-linejoin="miter"/><path d="M221.87787,184.99301v0c4.17349,-7.52474 11.91803,-13.01172 21.42932,-15.18263c9.51132,-2.17091 19.95881,-0.83619 28.90851,3.69325" fill-rule="evenodd" stroke="#ffffff" stroke-width="1" stroke-linecap="square" stroke-linejoin="miter"/><path d="M221.87787,184.99301v0c4.17349,-7.52474 11.91803,-13.01172 21.42932,-15.18263c9.51132,-2.17091 19.95881,-0.83619 28.90851,3.69325" fill-rule="evenodd" stroke="#ffffff" stroke-width="2" stroke-linecap="butt" stroke-linejoin="round"/><path d="M-119.79027,388.91669v-460.10047h763.69988v460.10047z" fill-rule="nonzero" stroke="none" stroke-width="2" stroke-linecap="butt" stroke-linejoin="miter"/></g></g></svg>