<svg version="1.1" xmlns="http://www.w3.org/2000/svg" xmlns:xlink="http://www.w3.org/1999/xlink" width="763.69988" height="460.10047" viewBox="0,0,763.69988,460.10047"><g transform="translate(119.79027,71.18378)"><g data-paper-data="{&quot;isPaintingLayer&quot;:true}" stroke-miterlimit="10" stroke-dasharray="" stroke-dashoffset="0" style="mix-blend-mode: normal"><path d="M129.09478,143.72623l111.41026,-80.05118l111.41026,80.05119l-42.55496,129.52552h-137.71064z" fill-opacity="0" fill="#000000" fill-rule="evenodd" stroke="#ffffff" stroke-width="1" stroke-linecap="square" stroke-linejoin="miter"/><path d="M129.09478,143.72623l111.41026,-80.05118l111.41026,80.05119l-42.55496,129.52552h-137.71064z" fill="none" fill-rule="evenodd" stroke="#ffffff" stroke-width="4" stroke-linecap="butt" stroke-linejoin="round"/><path d="M121.90335,179.85017v0c0,-65.50132 53.09932,-118.60064 118.60066,-118.60064v0c31.45485,0 61.62142,12.49537 83.86333,34.73733c22.24196,22.24192 34.73733,52.40848 34.73733,83.86333v0c0,65.50134 -53.09929,118.60066 -118.60066,118.60066v0c-65.50134,0 -118.60066,-53.09932 -118.60066,-118.60066z" fill-opacity="0" fill="#000000" fill-rule="evenodd" stroke="#ffffff" stroke-width="1" stroke-linecap="square" stroke-linejoin="miter"/><path d="M121.90335,179.85017v0c0,-65.50132 53.09932,-118.60064 118.60066,-118.60064v0c31.45485,0 61.62142,12.49537 83.86333,34.73733c22.24196,22.24192 34.73733,52.40848 34.73733,83.86333v0c0,65.50134 -53.09929,118.60066 -118.60066,118.60066v0c-65.50134,0 -118.60066,-53.09932 -118.60066,-118.60066z" fill="none" fill-rule="evenodd" stroke="#ffffff" stroke-width="4" stroke-linecap="butt" stroke-linejoin="round"/><path d="M174.1863,113.53715h132.62516v132.62518h-132.62516z" fill-opacity="0" fill="#000000" fill-rule="evenodd" stroke="#ffffff" stroke-width="1" stroke-linecap="square" stroke-linejoin="miter"/><path d="M174.1863,113.53715h132.62516v132.62518h-132.62516z" fill="none" fill-rule="evenodd" stroke="#ffffff" stroke-width="4" stroke-linecap="butt" stroke-linejoin="round"/><path d="M174.19684,179.84972v0c0,-36.62342 29.68916,-66.31259 66.31258,-66.31259v0c17.5872,0 34.45407,6.98647 46.89011,19.42251c12.43601,12.43604 19.42251,29.30291 19.42251,46.89008v0c0,36.62346 -29.6892,66.31259 -66.31262,66.31259v0c-36.62342,0 -66.31258,-29.68914 -66.31258,-66.31259z" fill-opacity="0" fill="#000000" fill-rule="evenodd" stroke="#ffffff" stroke-width="1" stroke-linecap="square" stroke-linejoin="miter"/><path d="M174.19684,179.84972v0c0,-36.62342 29.68916,-66.31259 66.31258,-66.31259v0c17.5872,0 34.45407,6.98647 46.89011,19.42251c12.43601,12.43604 19.42251,29.30291 19.42251,46.89008v0c0,36.62346 -29.6892,66.31259 -66.31262,66.31259v0c-36.62342,0 -66.31258,-29.68914 -66.31258,-66.31259z" fill="none" fill-rule="evenodd" stroke="#ffffff" stroke-width="4" stroke-linecap="butt" stroke-linejoin="round"/><path d="M185.21003,214.27085l55.28968,-100.73365l55.28966,100.73365z" fill-opacity="0" fill="#000000" fill-rule="evenodd" stroke="#ffffff" stroke-width="1" stroke-linecap="square" stroke-linejoin="miter"/><path d="M185.21003,214.27085l55.28968,-100.73365l55.28966,100.73365z" fill="none" fill-rule="evenodd" stroke="#ffffff" stroke-width="4" stroke-linecap="butt" stroke-linejoin="round"/><path d="M147.10655,179.84972v0c0,-51.58229 41.81572,-93.39801 93.39801,-93.39801v0c24.7707,0 48.52684,9.8401 66.04237,27.35563c17.51553,17.51553 27.35567,41.27167 27.35567,66.04237v0c0,51.58231 -41.81571,93.39803 -93.39803,93.39803v0c-51.5823,0 -93.39801,-41.81572 -93.39801,-93.39803z" fill-opacity="0" fill="#000000" fill-rule="evenodd" stroke="#ffffff" stroke-width="1" stroke-linecap="square" stroke-linejoin="miter"/><path d="M147.10655,179.84972v0c0,-51.58229 41.81572,-93.39801 93.39801,-93.39801v0c24.7707,0 48.52684,9.8401 66.04237,27.35563c17.51553,17.51553 27.35567,41.27167 27.35567,66.04237v0c0,51.58231 -41.81571,93.39803 -93.39803,93.39803v0c-51.5823,0 -93.39801,-41.81572 -93.39801,-93.39803z" fill="none" fill-rule="evenodd" stroke="#ffffff" stroke-width="4" stroke-linecap="butt" stroke-linejoin="round"/><path d="M69.34222,132.93183v0c0,-16.45793 13.27483,-29.79971 29.65016,-29.79971v0c7.86373,0 15.40534,3.1396 20.96586,8.72814c5.56048,5.58855 8.68434,13.16821 8.68434,21.07159v0c0,16.45793 -13.27484,29.79974 -29.65019,29.79974v0c-16.37531,0 -29.65016,-13.34179 -29.65016,-29.79974z" fill-opacity="0" fill="#000000" fill-rule="evenodd" stroke="#ffffff" stroke-width="1" stroke-linecap="square" stroke-linejoin="miter"/><path d="M69.34222,132.93183v0c0,-16.45793 13.27483,-29.79971 29.65016,-29.79971v0c7.86373,0 15.40534,3.1396 20.96586,8.72814c5.56048,5.58855 8.68434,13.16821 8.68434,21.07159v0c0,16.45793 -13.27484,29.79974 -29.65019,29.79974v0c-16.37531,0 -29.65016,-13.34179 -29.65016,-29.79974z" fill="none" fill-rule="evenodd" stroke="#ffffff" stroke-width="4" stroke-linecap="butt" stroke-linejoin="round"/><path d="M85.46572,132.93082l-4.48962,15.78392c-1.60277,-9.61735 -1.54523,-23.0465 0.13869,-32.36681c1.68389,-9.32031 4.54699,-12.05656 6.90057,-6.59485c2.35362,5.4617 3.57263,17.67083 2.9381,29.42636c-0.63451,11.75554 -2.95407,19.93546 -5.59058,19.7152v0z" fill-opacity="0" fill="#000000" fill-rule="evenodd" stroke="#ffffff" stroke-width="1" stroke-linecap="square" stroke-linejoin="miter"/><path d="M80.9761,148.71475c-1.60277,-9.61735 -1.54523,-23.04651 0.13869,-32.36682c1.68389,-9.32031 4.54699,-12.05655 6.90057,-6.59484c2.35362,5.4617 3.57263,17.67083 2.9381,29.42636c-0.63451,11.75554 -2.95407,19.93546 -5.59058,19.71519v0" fill-opacity="0" fill="#000000" fill-rule="evenodd" stroke="#ffffff" stroke-width="1" stroke-linecap="square" stroke-linejoin="miter"/><path d="M80.9761,148.71475c-1.60277,-9.61735 -1.54523,-23.04651 0.13869,-32.36682c1.68389,-9.32031 4.54699,-12.05655 6.90057,-6.59484c2.35362,5.4617 3.57263,17.67083 2.9381,29.42636c-0.63451,11.75554 -2.95407,19.93546 -5.59058,19.71519v0" fill="none" fill-rule="evenodd" stroke="#ffffff" stroke-width="2" stroke-linecap="butt" stroke-linejoin="round"/><path d="M112.44992,158.89461v0c-2.6365,0.22026 -4.95606,-7.95965 -5.59058,-19.71519c-0.63451,-11.75553 0.58452,-23.96466 2.9381,-29.42636c2.35358,-5.46171 5.21668,-2.72548 6.9006,6.59484c1.68391,9.32031 1.74143,22.74947 0.13866,32.36682l-4.48962,-15.78393z" fill-opacity="0" fill="#000000" fill-rule="evenodd" stroke="#ffffff" stroke-width="1" stroke-linecap="square" stroke-linejoin="miter"/><path d="M112.44992,158.89461v0c-2.6365,0.22026 -4.95606,-7.95965 -5.59058,-19.71519c-0.63451,-11.75553 0.58452,-23.96466 2.9381,-29.42636c2.35358,-5.46171 5.21668,-2.72548 6.9006,6.59484c1.68391,9.32031 1.74143,22.74947 0.13866,32.36682" fill-opacity="0" fill="#000000" fill-rule="evenodd" stroke="#ffffff" stroke-width="1" stroke-linecap="square" stroke-linejoin="miter"/><path d="M112.44992,158.89461v0c-2.6365,0.22026 -4.95606,-7.95965 -5.59058,-19.71519c-0.63451,-11.75553 0.58452,-23.96466 2.9381,-29.42636c2.35358,-5.46171 5.21668,-2.72548 6.9006,6.59484c1.68391,9.32031 1.74143,22.74947 0.13866,32.36682" fill="none" fill-rule="evenodd" stroke="#ffffff" stroke-width="2" stroke-linecap="butt" stroke-linejoin="round"/><path d="M90.54306,133.22555l-5.55182,5.4693c-0.4531,-12.03035 0.62539,-24.21529 2.69185,-30.41259c2.06649,-6.19731 4.67229,-5.06165 6.50393,2.83451c1.83161,7.89616 2.49146,20.83866 1.64685,32.30344c-0.84458,11.4648 -3.01023,18.96298 -5.40531,18.71489v0z" fill-opacity="0" fill="#000000" fill-rule="evenodd" stroke="#ffffff" stroke-width="1" stroke-linecap="square" stroke-linejoin="miter"/><path d="M84.99124,138.69484c-0.4531,-12.03035 0.62539,-24.21529 2.69185,-30.41259c2.06649,-6.19731 4.67229,-5.06165 6.50393,2.83451c1.83161,7.89616 2.49146,20.83866 1.64685,32.30344c-0.84458,11.4648 -3.01023,18.96298 -5.40531,18.71489v0" fill-opacity="0" fill="#000000" fill-rule="evenodd" stroke="#ffffff" stroke-width="1" stroke-linecap="square" stroke-linejoin="miter"/><path d="M84.99124,138.69484c-0.4531,-12.03035 0.62539,-24.21529 2.69185,-30.41259c2.06649,-6.19731 4.67229,-5.06165 6.50393,2.83451c1.83161,7.89616 2.49146,20.83866 1.64685,32.30344c-0.84458,11.4648 -3.01023,18.96298 -5.40531,18.71489v0" fill="none" fill-rule="evenodd" stroke="#ffffff" stroke-width="2" stroke-linecap="butt" stroke-linejoin="round"/><path d="M107.96319,162.13511v0c-2.39507,0.24811 -4.56073,-7.25006 -5.40534,-18.71488c-0.84458,-11.46478 -0.18476,-24.4073 1.64688,-32.30345c1.83164,-7.89617 4.43744,-9.03182 6.50391,-2.83451c2.06646,6.19731 3.14499,18.38224 2.69185,30.41259l-5.55181,-5.4693z" fill-opacity="0" fill="#000000" fill-rule="evenodd" stroke="#ffffff" stroke-width="1" stroke-linecap="square" stroke-linejoin="miter"/><path d="M107.96319,162.13511v0c-2.39507,0.24811 -4.56073,-7.25006 -5.40534,-18.71488c-0.84458,-11.46478 -0.18476,-24.4073 1.64688,-32.30345c1.83164,-7.89617 4.43744,-9.03182 6.50391,-2.83451c2.06646,6.19731 3.14499,18.38224 2.69185,30.41259" fill-opacity="0" fill="#000000" fill-rule="evenodd" stroke="#ffffff" stroke-width="1" stroke-linecap="square" stroke-linejoin="miter"/><path d="M107.96319,162.13511v0c-2.39507,0.24811 -4.56073,-7.25006 -5.40534,-18.71488c-0.84458,-11.46478 -0.18476,-24.4073 1.64688,-32.30345c1.83164,-7.89617 4.43744,-9.03182 6.50391,-2.83451c2.06646,6.19731 3.14499,18.38224 2.69185,30.41259" fill="none" fill-rule="evenodd" stroke="#ffffff" stroke-width="2" stroke-linecap="butt" stroke-linejoin="round"/><path d="M298.74124,300.77308v0c0,-16.37531 13.27483,-29.65016 29.65016,-29.65016v0c7.86372,0 15.40534,3.12385 20.96582,8.68433c5.5605,5.56048 8.68434,13.10213 8.68434,20.96582v0c0,16.37535 -13.27481,29.65018 -29.65016,29.65018v0c-16.37531,0 -29.65016,-13.27483 -29.65016,-29.65018z" fill="none" fill-rule="evenodd" stroke="#ffffff" stroke-width="4" stroke-linecap="butt" stroke-linejoin="round"/><path d="M330.44219,330.42323v0c-17.50795,0 -31.70095,-13.27483 -31.70095,-29.65019c0,-16.37531 14.19301,-29.65016 31.70095,-29.65016v0c-9.97809,6.99946 -15.85048,17.98439 -15.85048,29.65016c0,11.66575 5.87239,22.65073 15.85048,29.65019z" fill="none" fill-rule="evenodd" stroke="#ffffff" stroke-width="1" stroke-linecap="square" stroke-linejoin="miter"/><path d="M330.44219,330.42323v0c-17.50795,0 -31.70095,-13.27483 -31.70095,-29.65019c0,-16.37531 14.19301,-29.65016 31.70095,-29.65016v0c-9.97809,6.99946 -15.85048,17.98439 -15.85048,29.65016c0,11.66575 5.87239,22.65073 15.85048,29.65019z" fill="none" fill-rule="evenodd" stroke="#ffffff" stroke-width="2" stroke-linecap="butt" stroke-linejoin="round"/><path d="M330.44014,330.42323v0c-11.33991,0 -20.53275,-13.27483 -20.53275,-29.65019c0,-16.37531 9.19284,-29.65016 20.53275,-29.65016v0c-6.46282,6.99946 -10.26637,17.98439 -10.26637,29.65016c0,11.66575 3.80355,22.65073 10.26637,29.65019z" fill="none" fill-rule="evenodd" stroke="#ffffff" stroke-width="1" stroke-linecap="square" stroke-linejoin="miter"/><path d="M330.44014,330.42323v0c-11.33991,0 -20.53275,-13.27483 -20.53275,-29.65019c0,-16.37531 9.19284,-29.65016 20.53275,-29.65016v0c-6.46282,6.99946 -10.26637,17.98439 -10.26637,29.65016c0,11.66575 3.80355,22.65073 10.26637,29.65019z" fill="none" fill-rule="evenodd" stroke="#ffffff" stroke-width="2" stroke-linecap="butt" stroke-linejoin="round"/><path d="M298.74124,300.77308v0c0,-16.37531 13.27483,-29.65016 29.65016,-29.65016v0c7.86372,0 15.40534,3.12385 20.96582,8.68433c5.5605,5.56048 8.68434,13.10213 8.68434,20.96582v0c0,16.37535 -13.27481,29.65018 -29.65016,29.65018v0c-16.37531,0 -29.65016,-13.27483 -29.65016,-29.65018z" fill="none" fill-rule="evenodd" stroke="#ffffff" stroke-width="1" stroke-linecap="square" stroke-linejoin="miter"/><path d="M120.42178,298.57358v0c0,-16.37531 13.27481,-29.65016 29.65016,-29.65016v0c7.8637,0 15.40534,3.12386 20.96582,8.68434c5.5605,5.56048 8.68434,13.10212 8.68434,20.96582v0c0,16.37535 -13.27483,29.65019 -29.65016,29.65019v0c-16.37535,0 -29.65016,-13.27483 -29.65016,-29.65019z" fill="none" fill-rule="evenodd" stroke="#ffffff" stroke-width="4" stroke-linecap="butt" stroke-linejoin="round"/><path d="M354.67828,134.98683v0c0,-16.37531 13.27481,-29.65016 29.65016,-29.65016v0c7.8637,0 15.40534,3.12386 20.96582,8.68434c5.5605,5.56048 8.68434,13.10212 8.68434,20.96582v0c0,16.37535 -13.27483,29.65019 -29.65016,29.65019v0c-16.37535,0 -29.65016,-13.27483 -29.65016,-29.65019z" fill="none" fill-rule="evenodd" stroke="#ffffff" stroke-width="4" stroke-linecap="butt" stroke-linejoin="round"/><path d="M210.95685,30.45914v0c0,-16.37531 13.27481,-29.65016 29.65016,-29.65016v0c7.8637,0 15.40534,3.12386 20.96582,8.68434c5.5605,5.56048 8.68434,13.10212 8.68434,20.96582v0c0,16.37535 -13.27483,29.65019 -29.65016,29.65019v0c-16.37535,0 -29.65016,-13.27483 -29.65016,-29.65019z" fill="none" fill-rule="evenodd" stroke="#ffffff" stroke-width="4" stroke-linecap="butt" stroke-linejoin="round"/><path d="M-119.79027,388.91669v-460.10047h763.69988v460.10047z" fill="none" fill-rule="nonzero" stroke="none" stroke-width="2" stroke-linecap="butt" stroke-linejoin="miter"/></g></g></svg>