<svg version="1.1" xmlns="http://www.w3.org/2000/svg" xmlns:xlink="http://www.w3.org/1999/xlink" width="763.69988" height="460.10047" viewBox="0,0,763.69988,460.10047"><g transform="translate(119.79027,71.18378)"><g data-paper-data="{&quot;isPaintingLayer&quot;:true}" stroke-miterlimit="10" stroke-dasharray="" stroke-dashoffset="0" style="mix-blend-mode: normal"><path d="M207.87406,179.99999v0c0,-17.74268 14.3833,-32.12597 32.126,-32.12597v0c8.52032,0 16.69172,3.3847 22.7165,9.40949c6.02478,6.02478 9.40949,14.19616 9.40949,22.71649v0c0,17.74271 -14.38331,32.12598 -32.12598,32.12598v0c-17.7427,0 -32.126,-14.38327 -32.126,-32.12598z" data-paper-data="{&quot;origPos&quot;:null}" fill-opacity="0" fill="#000000" fill-rule="evenodd" stroke="none" stroke-width="1" stroke-linecap="square" stroke-linejoin="miter"/><path d="M207.87406,179.99999v0c0,-17.74268 14.3833,-32.12597 32.126,-32.12597v0c8.52032,0 16.69172,3.3847 22.7165,9.40949c6.02478,6.02478 9.40949,14.19616 9.40949,22.71649v0c0,17.74271 -14.38331,32.12598 -32.12598,32.12598v0c-17.7427,0 -32.126,-14.38327 -32.126,-32.12598z" data-paper-data="{&quot;origPos&quot;:null}" fill="none" fill-rule="evenodd" stroke="#ffffff" stroke-width="2" stroke-linecap="butt" stroke-linejoin="round"/><path d="M207.87398,179.99999l32.12597,-32.12597l32.12601,32.12597l-32.12601,32.12598z" data-paper-data="{&quot;origPos&quot;:null}" fill-opacity="0" fill="#000000" fill-rule="evenodd" stroke="none" stroke-width="1" stroke-linecap="square" stroke-linejoin="miter"/><path d="M207.87398,179.99999h64.25198" data-paper-data="{&quot;origPos&quot;:null}" fill-opacity="0" fill="#000000" fill-rule="evenodd" stroke="none" stroke-width="1" stroke-linecap="square" stroke-linejoin="miter"/><path d="M207.87398,179.99999l32.12597,-32.12597l32.12601,32.12597l-32.12601,32.12598z" data-paper-data="{&quot;origPos&quot;:null}" fill-opacity="0" fill="#000000" fill-rule="evenodd" stroke="none" stroke-width="1" stroke-linecap="square" stroke-linejoin="miter"/><path d="M207.87398,179.99999h64.25198" data-paper-data="{&quot;origPos&quot;:null}" fill="none" fill-rule="evenodd" stroke="#ffffff" stroke-width="2" stroke-linecap="butt" stroke-linejoin="round"/><path d="M207.87398,179.99999l32.12597,-32.12597l32.12601,32.12597l-32.12601,32.12598z" data-paper-data="{&quot;origPos&quot;:null}" fill="none" fill-rule="evenodd" stroke="#ffffff" stroke-width="2" stroke-linecap="butt" stroke-linejoin="round"/><path d="M-119.79027,388.91669v-460.10047h763.69988v460.10047z" fill="none" fill-rule="nonzero" stroke="none" stroke-width="2" stroke-linecap="butt" stroke-linejoin="miter"/></g></g></svg>