<svg version="1.1" xmlns="http://www.w3.org/2000/svg" xmlns:xlink="http://www.w3.org/1999/xlink" width="763.69988" height="460.10047" viewBox="0,0,763.69988,460.10047"><g transform="translate(119.79027,71.18378)"><g data-paper-data="{&quot;isPaintingLayer&quot;:true}" stroke-miterlimit="10" stroke-dasharray="" stroke-dashoffset="0" style="mix-blend-mode: normal"><path d="M207.87274,179.8425v0c0,-17.74268 14.3833,-32.12597 32.12598,-32.12597v0c8.52035,0 16.69172,3.3847 22.71653,9.40948c6.02478,6.02478 9.40948,14.19617 9.40948,22.71649v0c0,17.74273 -14.3833,32.12597 -32.12601,32.12597v0c-17.74267,0 -32.12598,-14.38324 -32.12598,-32.12597z" data-paper-data="{&quot;origPos&quot;:null}" fill-opacity="0" fill="#000000" fill-rule="evenodd" stroke="#000000" stroke-width="1" stroke-linecap="square" stroke-linejoin="miter"/><path d="M207.66932,179.99997v0c0,-17.82965 14.47494,-32.28344 32.33069,-32.28344v0c8.57465,0 16.79809,3.4013 22.86127,9.45562c6.0632,6.05432 9.46946,14.26574 9.46946,22.82782v0c0,17.82971 -14.47495,32.28351 -32.33072,32.28351v0c-17.85575,0 -32.33069,-14.4538 -32.33069,-32.28351z" data-paper-data="{&quot;origPos&quot;:null}" fill-opacity="0" fill="#000000" fill-rule="evenodd" stroke="#000000" stroke-width="1" stroke-linecap="square" stroke-linejoin="miter"/><path d="M217.13877,157.17214l45.72251,45.6557M262.86127,157.17214l-45.72251,45.6557" data-paper-data="{&quot;origPos&quot;:null}" fill-opacity="0" fill="#000000" fill-rule="evenodd" stroke="#000000" stroke-width="1" stroke-linecap="square" stroke-linejoin="miter"/><path d="M207.66932,179.99997v0c0,-17.82965 14.47494,-32.28344 32.33069,-32.28344v0c8.57465,0 16.79809,3.4013 22.86127,9.45562c6.0632,6.05432 9.46946,14.26574 9.46946,22.82782v0c0,17.82971 -14.47495,32.28351 -32.33072,32.28351v0c-17.85575,0 -32.33069,-14.4538 -32.33069,-32.28351z" data-paper-data="{&quot;origPos&quot;:null}" fill-opacity="0" fill="#000000" fill-rule="evenodd" stroke="#000000" stroke-width="1" stroke-linecap="square" stroke-linejoin="miter"/><path d="M207.66932,179.99997v0c0,-17.82965 14.47494,-32.28344 32.33069,-32.28344v0c8.57465,0 16.79809,3.4013 22.86127,9.45562c6.0632,6.05432 9.46946,14.26574 9.46946,22.82782v0c0,17.82971 -14.47495,32.28351 -32.33072,32.28351v0c-17.85575,0 -32.33069,-14.4538 -32.33069,-32.28351z" data-paper-data="{&quot;origPos&quot;:null}" fill="none" fill-rule="evenodd" stroke="#ffffff" stroke-width="2" stroke-linecap="butt" stroke-linejoin="round"/><path d="M217.13877,157.17214l45.72251,45.6557M262.86127,157.17214l-45.72251,45.6557" data-paper-data="{&quot;origPos&quot;:null}" fill="none" fill-rule="evenodd" stroke="#ffffff" stroke-width="2" stroke-linecap="butt" stroke-linejoin="round"/><path d="M240.00001,147.71654l0.1575,32.09448" data-paper-data="{&quot;origPos&quot;:null}" fill-opacity="0" fill="#000000" fill-rule="evenodd" stroke="#ffffff" stroke-width="1" stroke-linecap="square" stroke-linejoin="miter"/><path d="M240.00001,147.71654l0.1575,32.09448" data-paper-data="{&quot;origPos&quot;:null}" fill="none" fill-rule="evenodd" stroke="#ffffff" stroke-width="2" stroke-linecap="butt" stroke-linejoin="round"/><path d="M216.62471,190.18764v-20.37531l23.37533,10.18762l23.3753,-10.18762v20.37531l-23.3753,-10.18768z" data-paper-data="{&quot;origPos&quot;:null}" fill-opacity="0" fill="#000000" fill-rule="evenodd" stroke="#000000" stroke-width="1" stroke-linecap="square" stroke-linejoin="miter"/><path d="M216.62471,190.18764v-20.37531l23.37533,10.18762l23.3753,-10.18762v20.37531l-23.3753,-10.18768z" data-paper-data="{&quot;origPos&quot;:null}" fill="none" fill-rule="evenodd" stroke="#ffffff" stroke-width="2" stroke-linecap="butt" stroke-linejoin="round"/><path d="M-119.79027,388.91669v-460.10047h763.69988v460.10047z" fill="none" fill-rule="nonzero" stroke="none" stroke-width="2" stroke-linecap="butt" stroke-linejoin="miter"/></g></g></svg>