<svg version="1.1" xmlns="http://www.w3.org/2000/svg" xmlns:xlink="http://www.w3.org/1999/xlink" width="763.69988" height="460.10047" viewBox="0,0,763.69988,460.10047"><g transform="translate(119.79027,71.18378)"><g data-paper-data="{&quot;isPaintingLayer&quot;:true}" stroke-miterlimit="10" stroke-dasharray="" stroke-dashoffset="0" style="mix-blend-mode: normal"><path d="M207.87406,180v0c0,-17.74267 14.3833,-32.12597 32.126,-32.12597v0c8.52033,0 16.69172,3.3847 22.7165,9.40948c6.02478,6.02478 9.40949,14.19616 9.40949,22.71649v0c0,17.74268 -14.38331,32.12597 -32.12598,32.12597v0c-17.7427,0 -32.126,-14.3833 -32.126,-32.12597z" data-paper-data="{&quot;origPos&quot;:null}" fill-opacity="0" fill="#000000" fill-rule="evenodd" stroke="#000000" stroke-width="1" stroke-linecap="square" stroke-linejoin="miter"/><path d="M207.87406,180v0c0,-17.74267 14.3833,-32.12597 32.126,-32.12597v0c8.52033,0 16.69172,3.3847 22.7165,9.40948c6.02478,6.02478 9.40949,14.19616 9.40949,22.71649v0c0,17.74268 -14.38331,32.12597 -32.12598,32.12597v0c-17.7427,0 -32.126,-14.3833 -32.126,-32.12597z" data-paper-data="{&quot;origPos&quot;:null}" fill="none" fill-rule="evenodd" stroke="#ffffff" stroke-width="2" stroke-linecap="butt" stroke-linejoin="round"/><path d="M252.50921,178.23722l-22.48819,-0.18902" data-paper-data="{&quot;origPos&quot;:null}" fill-opacity="0" fill="#000000" fill-rule="evenodd" stroke="#000000" stroke-width="1" stroke-linecap="square" stroke-linejoin="miter"/><path d="M252.50921,178.23722l-22.48819,-0.18902" data-paper-data="{&quot;origPos&quot;:null}" fill="none" fill-rule="evenodd" stroke="#ffffff" stroke-width="2" stroke-linecap="butt" stroke-linejoin="round"/><path d="M241.36851,167.10496l-0.18896,22.07873" data-paper-data="{&quot;origPos&quot;:null}" fill-opacity="0" fill="#000000" fill-rule="evenodd" stroke="#000000" stroke-width="1" stroke-linecap="square" stroke-linejoin="miter"/><path d="M241.36854,166.10496l-0.18896,22.07873" data-paper-data="{&quot;origPos&quot;:null}" fill="none" fill-rule="evenodd" stroke="#ffffff" stroke-width="2" stroke-linecap="butt" stroke-linejoin="round"/><path d="M235.27038,167.1076l6,-11.40155l6,11.40155z" data-paper-data="{&quot;origPos&quot;:null}" fill-opacity="0" fill="#000000" fill-rule="evenodd" stroke="#000000" stroke-width="1" stroke-linecap="square" stroke-linejoin="miter"/><path d="M235.27038,167.1076l6,-11.40155l6,11.40155z" data-paper-data="{&quot;origPos&quot;:null}" fill="none" fill-rule="evenodd" stroke="#ffffff" stroke-width="2" stroke-linecap="butt" stroke-linejoin="round"/><path d="M233.71396,178.1443l-3.96637,1.47906v-2.95813zM230.82124,170.89485l-1.79682,3.95825l-2.01458,-2.09173zM223.83995,167.89235l1.42456,4.11817h-2.84909zM216.85769,170.89485l3.81235,1.86651l-2.01459,2.09174zM213.96594,178.1443l3.96637,-1.47907v2.95813zM216.85769,185.39284l1.79776,-3.95734l2.01459,2.09174zM223.83995,188.39626l-1.42453,-4.11816h2.84909zM230.82124,185.39284l-3.8114,-1.8656l2.01458,-2.09173zM218.87666,178.1443v0c0,-2.84607 2.22214,-5.15326 4.96326,-5.15326c2.74115,0 4.96329,2.30719 4.96329,5.15326c0,2.84607 -2.22214,5.15326 -4.96329,5.15326c-2.74112,0 -4.96326,-2.30719 -4.96326,-5.15326z" data-paper-data="{&quot;origPos&quot;:null}" fill-opacity="0" fill="#000000" fill-rule="evenodd" stroke="#ffffff" stroke-width="1" stroke-linecap="square" stroke-linejoin="miter"/><path d="M233.71396,178.1443l-3.96637,1.47906v-2.95813zM230.82124,170.89485l-1.79682,3.95825l-2.01458,-2.09173zM223.83995,167.89235l1.42456,4.11817h-2.84909zM216.85769,170.89485l3.81235,1.86651l-2.01459,2.09174zM213.96594,178.1443l3.96637,-1.47907v2.95813zM216.85769,185.39284l1.79776,-3.95734l2.01459,2.09174zM223.83995,188.39626l-1.42453,-4.11816h2.84909zM230.82124,185.39284l-3.8114,-1.8656l2.01458,-2.09173zM218.87666,178.1443v0c0,-2.84607 2.22214,-5.15326 4.96326,-5.15326c2.74115,0 4.96329,2.30719 4.96329,5.15326c0,2.84607 -2.22214,5.15326 -4.96329,5.15326c-2.74112,0 -4.96326,-2.30719 -4.96326,-5.15326z" data-paper-data="{&quot;origPos&quot;:null}" fill="none" fill-rule="evenodd" stroke="#ffffff" stroke-width="2" stroke-linecap="butt" stroke-linejoin="round"/><path d="M264.50924,187.6404v0c-6.62744,0 -12,-4.25152 -12,-9.49609c0,-5.24451 5.37256,-9.49603 12,-9.49603v0c-3.7771,2.2417 -6,5.75982 -6,9.49603c0,3.73621 2.2229,7.25433 6,9.49609z" data-paper-data="{&quot;origPos&quot;:null}" fill-opacity="0" fill="#000000" fill-rule="evenodd" stroke="#000000" stroke-width="1" stroke-linecap="square" stroke-linejoin="miter"/><path d="M264.50924,187.6404v0c-6.62744,0 -12,-4.25152 -12,-9.49609c0,-5.24451 5.37256,-9.49603 12,-9.49603v0c-3.7771,2.2417 -6,5.75982 -6,9.49603c0,3.73621 2.2229,7.25433 6,9.49609z" data-paper-data="{&quot;origPos&quot;:null}" fill="none" fill-rule="evenodd" stroke="#ffffff" stroke-width="2" stroke-linecap="butt" stroke-linejoin="round"/><path d="M233.71396,196.7349v0c0,-4.17474 3.38431,-7.55908 7.55905,-7.55908v0c2.00479,0 3.92746,0.79638 5.34506,2.21398c1.4176,1.41761 2.21399,3.34027 2.21399,5.34509v0c0,4.17474 -3.38431,7.55902 -7.55906,7.55902v0c-4.17475,0 -7.55905,-3.38428 -7.55905,-7.55902z" data-paper-data="{&quot;origPos&quot;:null}" fill-opacity="0" fill="#000000" fill-rule="evenodd" stroke="#000000" stroke-width="1" stroke-linecap="square" stroke-linejoin="miter"/><path d="M233.71396,196.7349v0c0,-4.17474 3.38431,-7.55908 7.55905,-7.55908v0c2.00479,0 3.92746,0.79638 5.34506,2.21398c1.4176,1.41761 2.21399,3.34027 2.21399,5.34509v0c0,4.17474 -3.38431,7.55902 -7.55906,7.55902v0c-4.17475,0 -7.55905,-3.38428 -7.55905,-7.55902z" data-paper-data="{&quot;origPos&quot;:null}" fill="none" fill-rule="evenodd" stroke="#ffffff" stroke-width="2" stroke-linecap="butt" stroke-linejoin="round"/><path d="M-119.79027,388.91669v-460.10047h763.69988v460.10047z" fill="none" fill-rule="nonzero" stroke="none" stroke-width="2" stroke-linecap="butt" stroke-linejoin="miter"/></g></g></svg>