<svg version="1.1" xmlns="http://www.w3.org/2000/svg" xmlns:xlink="http://www.w3.org/1999/xlink" width="763.69988" height="460.10047" viewBox="0,0,763.69988,460.10047"><g transform="translate(119.79027,71.18378)"><g data-paper-data="{&quot;isPaintingLayer&quot;:true}" stroke-miterlimit="10" stroke-dasharray="" stroke-dashoffset="0" style="mix-blend-mode: normal"><path d="M207.87403,180.00005v0c0,-17.74268 14.3833,-32.12597 32.12597,-32.12597v0c8.52035,0 16.69172,3.38471 22.71649,9.40949c6.02481,6.02478 9.40949,14.19616 9.40949,22.71649v0c0,17.74271 -14.38328,32.12598 -32.12598,32.12598v0c-17.74267,0 -32.12597,-14.38327 -32.12597,-32.12598z" data-paper-data="{&quot;origPos&quot;:null}" fill-opacity="0" fill="#000000" fill-rule="evenodd" stroke="#000000" stroke-width="1" stroke-linecap="square" stroke-linejoin="miter"/><path d="M207.87403,180.00005v0c0,-17.74268 14.3833,-32.12597 32.12597,-32.12597v0c8.52035,0 16.69172,3.38471 22.71649,9.40949c6.02481,6.02478 9.40949,14.19616 9.40949,22.71649v0c0,17.74271 -14.38328,32.12598 -32.12598,32.12598v0c-17.74267,0 -32.12597,-14.38327 -32.12597,-32.12598z" data-paper-data="{&quot;origPos&quot;:null}" fill="none" fill-rule="evenodd" stroke="#ffffff" stroke-width="2" stroke-linecap="butt" stroke-linejoin="round"/><path d="M270.23755,180.00005l-13.57431,3.77057v-7.54114zM261.37946,158.61909l-6.93072,12.26581l-5.33231,-5.33231zM240.00131,149.76385l3.77057,13.57428h-7.54114zM218.62039,158.61909l12.26581,6.9335l-5.3323,5.33231zM209.76511,180.00005l13.57428,-3.77057v7.54114zM218.62039,201.37819l6.9335,-12.26304l5.3323,5.33231zM240.00131,210.23627l-3.77057,-13.57431h7.54114zM261.37946,201.37819l-12.26303,-6.93072l5.33231,-5.33231zM226.86429,180.00005c0,-7.25537 5.88166,-13.13702 13.13703,-13.13702c7.25537,0 13.13703,5.88165 13.13703,13.13702c0,7.2554 -5.88166,13.13703 -13.13703,13.13703c-7.25537,0 -13.13703,-5.88163 -13.13703,-13.13703z" data-paper-data="{&quot;origPos&quot;:null}" fill-opacity="0" fill="#000000" fill-rule="evenodd" stroke="#ffffff" stroke-width="1" stroke-linecap="square" stroke-linejoin="miter"/><path d="M270.23755,180.00005l-13.57431,3.77057v-7.54114zM261.37946,158.61909l-6.93072,12.26581l-5.33231,-5.33231zM240.00131,149.76385l3.77057,13.57428h-7.54114zM218.62039,158.61909l12.26581,6.9335l-5.3323,5.33231zM209.76511,180.00005l13.57428,-3.77057v7.54114zM218.62039,201.37819l6.9335,-12.26304l5.3323,5.33231zM240.00131,210.23627l-3.77057,-13.57431h7.54114zM261.37946,201.37819l-12.26303,-6.93072l5.33231,-5.33231zM226.86429,180.00005c0,-7.25537 5.88166,-13.13702 13.13703,-13.13702c7.25537,0 13.13703,5.88165 13.13703,13.13702c0,7.2554 -5.88166,13.13703 -13.13703,13.13703c-7.25537,0 -13.13703,-5.88163 -13.13703,-13.13703z" data-paper-data="{&quot;origPos&quot;:null}" fill="none" fill-rule="evenodd" stroke="#ffffff" stroke-width="2" stroke-linecap="butt" stroke-linejoin="round"/><path d="M240.15091,192.86879v0c-7.25363,0 -13.13385,-5.76743 -13.13385,-12.8819c0,-7.11447 5.88022,-12.8819 13.13385,-12.8819v0c-4.13669,3.03927 -6.57178,7.81248 -6.57178,12.8819c0,5.06946 2.43509,9.84262 6.57178,12.8819z" data-paper-data="{&quot;origPos&quot;:null}" fill-opacity="0" fill="#000000" fill-rule="evenodd" stroke="#000000" stroke-width="1" stroke-linecap="square" stroke-linejoin="miter"/><path d="M240.15091,192.86879v0c-7.25363,0 -13.13385,-5.76743 -13.13385,-12.8819c0,-7.11447 5.88022,-12.8819 13.13385,-12.8819v0c-4.13669,3.03927 -6.57178,7.81248 -6.57178,12.8819c0,5.06946 2.43509,9.84262 6.57178,12.8819z" data-paper-data="{&quot;origPos&quot;:null}" fill="none" fill-rule="evenodd" stroke="#ffffff" stroke-width="2" stroke-linecap="butt" stroke-linejoin="round"/><path d="M-119.79027,388.91669v-460.10047h763.69988v460.10047z" fill="none" fill-rule="nonzero" stroke="none" stroke-width="2" stroke-linecap="butt" stroke-linejoin="miter"/></g></g></svg>