<svg version="1.1" xmlns="http://www.w3.org/2000/svg" xmlns:xlink="http://www.w3.org/1999/xlink" width="763.69988" height="460.10047" viewBox="0,0,763.69988,460.10047"><g transform="translate(119.79027,71.18378)"><g data-paper-data="{&quot;isPaintingLayer&quot;:true}" stroke-miterlimit="10" stroke-dasharray="" stroke-dashoffset="0" style="mix-blend-mode: normal"><path d="M207.87403,179.99383v0c0,-17.73974 14.3833,-32.12063 32.12598,-32.12063v0c8.52035,0 16.69172,3.38412 22.71652,9.40789c6.02478,6.0238 9.40949,14.19382 9.40949,22.71274v0c0,17.73971 -14.38331,32.1206 -32.12601,32.1206v0c-17.74267,0 -32.12598,-14.38089 -32.12598,-32.1206z" fill-opacity="0" fill="#000000" fill-rule="evenodd" stroke="#ffffff" stroke-width="1" stroke-linecap="square" stroke-linejoin="miter"/><path d="M207.87403,179.99383v0c0,-17.73974 14.3833,-32.12063 32.12598,-32.12063v0c8.52035,0 16.69172,3.38412 22.71652,9.40789c6.02478,6.0238 9.40949,14.19382 9.40949,22.71274v0c0,17.73971 -14.38331,32.1206 -32.12601,32.1206v0c-17.74267,0 -32.12598,-14.38089 -32.12598,-32.1206z" fill="none" fill-rule="evenodd" stroke="#ffffff" stroke-width="2" stroke-linecap="butt" stroke-linejoin="round"/><path d="M220.41087,187.03622c0,6.26724 5.03039,9.40085 10.06079,12.53449c5.03039,3.1336 10.06079,6.26724 10.06079,12.53448" fill-opacity="0" fill="#000000" fill-rule="evenodd" stroke="#ffffff" stroke-width="1" stroke-linecap="square" stroke-linejoin="miter"/><path d="M220.41087,187.03622c0,6.26724 5.03039,9.40085 10.06079,12.53449c5.03039,3.1336 10.06079,6.26724 10.06079,12.53448" fill="none" fill-rule="evenodd" stroke="#ffffff" stroke-width="2" stroke-linecap="butt" stroke-linejoin="round"/><path d="M240.78388,212.10593c0,-7.67011 5.10269,-11.50512 10.20535,-15.34018c5.10269,-3.83502 10.20535,-7.67007 10.20535,-15.34015" fill-opacity="0" fill="#000000" fill-rule="evenodd" stroke="#ffffff" stroke-width="1" stroke-linecap="square" stroke-linejoin="miter"/><path d="M240.78388,212.10593c0,-7.67011 5.10269,-11.50512 10.20535,-15.34018c5.10269,-3.83502 10.20535,-7.67007 10.20535,-15.34015" fill="none" fill-rule="evenodd" stroke="#ffffff" stroke-width="2" stroke-linecap="butt" stroke-linejoin="round"/><path d="M240.81597,210.0902c0,-8.85071 -3.84174,-13.27606 -7.68347,-17.70141c-3.84173,-4.42535 -7.68344,-8.85071 -7.68344,-17.70141" fill-opacity="0" fill="#000000" fill-rule="evenodd" stroke="#ffffff" stroke-width="1" stroke-linecap="square" stroke-linejoin="miter"/><path d="M240.81597,210.0902c0,-8.85071 -3.84174,-13.27606 -7.68347,-17.70141c-3.84173,-4.42535 -7.68344,-8.85071 -7.68344,-17.70141" fill="none" fill-rule="evenodd" stroke="#ffffff" stroke-width="2" stroke-linecap="butt" stroke-linejoin="round"/><path d="M240.56451,212.10369c0,-9.35401 3.02252,-14.03104 6.04504,-18.70803c3.02252,-4.677 6.04505,-9.35401 6.04505,-18.70801" fill-opacity="0" fill="#000000" fill-rule="evenodd" stroke="#ffffff" stroke-width="1" stroke-linecap="square" stroke-linejoin="miter"/><path d="M240.56451,212.10369c0,-9.35401 3.02252,-14.03104 6.04504,-18.70803c3.02252,-4.677 6.04505,-9.35401 6.04505,-18.70801" fill="none" fill-rule="evenodd" stroke="#ffffff" stroke-width="2" stroke-linecap="butt" stroke-linejoin="round"/><path d="M233.42179,165.7048c0,11.6055 1.78034,17.40827 3.56064,23.21103c1.7803,5.80274 3.56063,11.6055 3.56063,23.211" fill-opacity="0" fill="#000000" fill-rule="evenodd" stroke="#ffffff" stroke-width="1" stroke-linecap="square" stroke-linejoin="miter"/><path d="M233.42179,165.7048c0,11.6055 1.78034,17.40827 3.56064,23.21103c1.7803,5.80274 3.56063,11.6055 3.56063,23.211" fill="none" fill-rule="evenodd" stroke="#ffffff" stroke-width="2" stroke-linecap="butt" stroke-linejoin="round"/><path d="M239.62152,148.52062c0,1.78507 -0.33999,6.06378 0,10.71045c0.33999,4.64667 1.89826,8.35794 2.04001,17.16956c0.14173,8.81159 -0.9913,29.75 -1.18957,35.69998" fill-opacity="0" fill="#000000" fill-rule="evenodd" stroke="#ffffff" stroke-width="1" stroke-linecap="square" stroke-linejoin="miter"/><path d="M239.62152,148.52062c0,1.78507 -0.33999,6.06378 0,10.71045c0.33999,4.64667 1.89826,8.35794 2.04001,17.16956c0.14173,8.81159 -0.9913,29.75 -1.18957,35.69998" fill="none" fill-rule="evenodd" stroke="#ffffff" stroke-width="2" stroke-linecap="butt" stroke-linejoin="round"/><path d="M-119.79027,388.91669v-460.10047h763.69988v460.10047z" fill="none" fill-rule="nonzero" stroke="none" stroke-width="2" stroke-linecap="butt" stroke-linejoin="miter"/></g></g></svg>