<svg version="1.1" xmlns="http://www.w3.org/2000/svg" xmlns:xlink="http://www.w3.org/1999/xlink" width="763.69988" height="460.10047" viewBox="0,0,763.69988,460.10047"><g transform="translate(119.79027,71.18378)"><g data-paper-data="{&quot;isPaintingLayer&quot;:true}" stroke-miterlimit="10" stroke-dasharray="" stroke-dashoffset="0" style="mix-blend-mode: normal"><path d="M207.87404,180v0c0,-17.74267 14.3833,-32.12598 32.126,-32.12598v0c8.52032,0 16.69172,3.38471 22.7165,9.40949c6.02478,6.02478 9.40949,14.19617 9.40949,22.71649v0c0,17.74271 -14.38331,32.12598 -32.12598,32.12598v0c-17.7427,0 -32.126,-14.38327 -32.126,-32.12598z" data-paper-data="{&quot;origPos&quot;:null}" fill-opacity="0" fill="#000000" fill-rule="evenodd" stroke="none" stroke-width="1" stroke-linecap="square" stroke-linejoin="miter"/><path d="M207.87404,180v0c0,-17.74267 14.3833,-32.12598 32.126,-32.12598v0c8.52032,0 16.69172,3.38471 22.7165,9.40949c6.02478,6.02478 9.40949,14.19617 9.40949,22.71649v0c0,17.74271 -14.38331,32.12598 -32.12598,32.12598v0c-17.7427,0 -32.126,-14.38327 -32.126,-32.12598z" data-paper-data="{&quot;origPos&quot;:null}" fill="none" fill-rule="evenodd" stroke="#ffffff" stroke-width="2" stroke-linecap="butt" stroke-linejoin="round"/><path d="M220.56434,156.59842h38.87399l-19.43698,24.25724l19.43698,24.2572h-38.87399l19.43701,-24.2572z" data-paper-data="{&quot;origPos&quot;:null}" fill-opacity="0" fill="#000000" fill-rule="evenodd" stroke="none" stroke-width="1" stroke-linecap="square" stroke-linejoin="miter"/><path d="M220.56434,156.59842h38.87399l-19.43698,24.25724l19.43698,24.2572h-38.87399l19.43701,-24.2572z" data-paper-data="{&quot;origPos&quot;:null}" fill="none" fill-rule="evenodd" stroke="#ffffff" stroke-width="2" stroke-linecap="butt" stroke-linejoin="round"/><path d="M222.99348,205.11286l17.00788,-12.18897l17.00787,12.18897z" data-paper-data="{&quot;origPos&quot;:null}" fill="#000000" fill-rule="evenodd" stroke="none" stroke-width="1" stroke-linecap="square" stroke-linejoin="miter"/><path d="M222.99348,205.11286l17.00788,-12.18897l17.00787,12.18897z" data-paper-data="{&quot;origPos&quot;:null}" fill="#ffffff" fill-rule="evenodd" stroke="#ffffff" stroke-width="1" stroke-linecap="butt" stroke-linejoin="round"/><path d="M-119.79027,388.91669v-460.10047h763.69988v460.10047z" fill="none" fill-rule="nonzero" stroke="none" stroke-width="2" stroke-linecap="butt" stroke-linejoin="miter"/></g></g></svg>