<svg version="1.1" xmlns="http://www.w3.org/2000/svg" xmlns:xlink="http://www.w3.org/1999/xlink" width="763.69988" height="460.10047" viewBox="0,0,763.69988,460.10047"><g transform="translate(119.79027,71.18378)"><g data-paper-data="{&quot;isPaintingLayer&quot;:true}" stroke-miterlimit="10" stroke-dasharray="" stroke-dashoffset="0" style="mix-blend-mode: normal"><path d="M207.87406,180.00005v0c0,-17.74269 14.3833,-32.12599 32.12598,-32.12599v0c8.52035,0 16.69171,3.38469 22.71652,9.40949c6.02478,6.02479 9.40945,14.19617 9.40945,22.7165v0c0,17.74268 -14.38328,32.12598 -32.12598,32.12598v0c-17.74267,0 -32.12598,-14.38331 -32.12598,-32.12598z" data-paper-data="{&quot;origPos&quot;:null}" fill-opacity="0" fill="#000000" fill-rule="evenodd" stroke="#000000" stroke-width="1" stroke-linecap="square" stroke-linejoin="miter"/><path d="M207.87406,180.00005v0c0,-17.74269 14.3833,-32.12599 32.12598,-32.12599v0c8.52035,0 16.69171,3.38469 22.71652,9.40949c6.02478,6.02479 9.40945,14.19617 9.40945,22.7165v0c0,17.74268 -14.38328,32.12598 -32.12598,32.12598v0c-17.74267,0 -32.12598,-14.38331 -32.12598,-32.12598z" data-paper-data="{&quot;origPos&quot;:null}" fill="none" fill-rule="evenodd" stroke="#ffffff" stroke-width="2" stroke-linecap="butt" stroke-linejoin="round"/><path d="M217.28354,157.28354c0,3.70929 6.0679,3.80629 11.3248,7.41858c5.2569,3.61229 9.70276,10.73988 11.32483,17.56298c1.62204,6.82312 0.42025,13.34175 0.02951,17.56301c-0.39075,4.22122 0.02951,6.14502 0.02951,12.29007" data-paper-data="{&quot;origPos&quot;:null}" fill-opacity="0" fill="#000000" fill-rule="evenodd" stroke="#ffffff" stroke-width="1" stroke-linecap="square" stroke-linejoin="miter"/><path d="M217.28354,157.28354c0,3.70929 6.0679,3.80629 11.3248,7.41858c5.2569,3.61229 9.70276,10.73988 11.32483,17.56298c1.62204,6.82312 0.42025,13.34175 0.02951,17.56301c-0.39075,4.22122 0.02951,6.14502 0.02951,12.29007" data-paper-data="{&quot;origPos&quot;:null}" fill="none" fill-rule="evenodd" stroke="#ffffff" stroke-width="2" stroke-linecap="butt" stroke-linejoin="round"/><path d="M240.20982,185.09246v0c1.86936,-5.216 6.63928,-9.58692 12.89044,-11.81206c6.25116,-2.22516 13.26305,-2.04809 18.94915,0.47849l-11.293,15.05258z" data-paper-data="{&quot;origPos&quot;:null}" fill-opacity="0" fill="#000000" fill-rule="evenodd" stroke="none" stroke-width="0" stroke-linecap="square" stroke-linejoin="miter"/><path d="M240.20982,185.09246v0c1.86936,-5.21601 6.63928,-9.58692 12.89044,-11.81206c6.25116,-2.22516 13.26305,-2.04809 18.94915,0.47849" data-paper-data="{&quot;origPos&quot;:null}" fill-opacity="0" fill="#000000" fill-rule="evenodd" stroke="#ffffff" stroke-width="1" stroke-linecap="square" stroke-linejoin="miter"/><path d="M240.20982,185.09246v0c1.86936,-5.21601 6.63928,-9.58692 12.89044,-11.81206c6.25116,-2.22516 13.26305,-2.04809 18.94915,0.47849" data-paper-data="{&quot;origPos&quot;:null}" fill="none" fill-rule="evenodd" stroke="#ffffff" stroke-width="2" stroke-linecap="butt" stroke-linejoin="round"/><path d="M239.84676,198.75193v0c1.47702,-5.4891 6.16452,-10.23138 12.56891,-12.71571c6.40439,-2.48433 13.72667,-2.4008 19.63372,0.22395c0,0 -11.4645,4.4472 -18.80237,7.29364c-5.22962,2.02863 -13.40026,5.19812 -13.40026,5.19812z" data-paper-data="{&quot;origPos&quot;:null}" fill-opacity="0" fill="#000000" fill-rule="evenodd" stroke="none" stroke-width="0" stroke-linecap="square" stroke-linejoin="miter"/><path d="M239.84676,198.75193v0c1.47702,-5.4891 6.16452,-10.23139 12.56891,-12.71572c6.40439,-2.48433 13.72667,-2.4008 19.63372,0.22396" data-paper-data="{&quot;origPos&quot;:null}" fill-opacity="0" fill="#000000" fill-rule="evenodd" stroke="#ffffff" stroke-width="1" stroke-linecap="square" stroke-linejoin="miter"/><path d="M239.84676,198.75193v0c1.47702,-5.4891 6.16452,-10.23139 12.56891,-12.71572c6.40439,-2.48433 13.72667,-2.4008 19.63372,0.22396" data-paper-data="{&quot;origPos&quot;:null}" fill="none" fill-rule="evenodd" stroke="#ffffff" stroke-width="2" stroke-linecap="butt" stroke-linejoin="round"/><path d="M236.20982,174.26565v0c1.84671,-5.15291 6.526,-9.48477 12.67569,-11.73458c6.14969,-2.24979 13.07864,-2.16469 18.76983,0.23055l-10.89892,15.22304z" data-paper-data="{&quot;origPos&quot;:null}" fill-opacity="0" fill="#000000" fill-rule="evenodd" stroke="#000000" stroke-width="0" stroke-linecap="square" stroke-linejoin="miter"/><path d="M236.20982,174.26565v0c1.84671,-5.15291 6.526,-9.48477 12.67569,-11.73458c6.14969,-2.24979 13.07864,-2.16469 18.76983,0.23054" data-paper-data="{&quot;origPos&quot;:null}" fill-opacity="0" fill="#000000" fill-rule="evenodd" stroke="#ffffff" stroke-width="1" stroke-linecap="square" stroke-linejoin="miter"/><path d="M236.20982,174.26565v0c1.84671,-5.15291 6.526,-9.48477 12.67569,-11.73458c6.14969,-2.24979 13.07864,-2.16469 18.76983,0.23054" data-paper-data="{&quot;origPos&quot;:null}" fill="none" fill-rule="evenodd" stroke="#ffffff" stroke-width="2" stroke-linecap="butt" stroke-linejoin="round"/><path d="M228.02083,163.88769v0c3.16171,-8.82215 14.24578,-14.58416 25.28699,-13.14539l-4.74042,16.8644z" data-paper-data="{&quot;origPos&quot;:null}" fill-opacity="0" fill="#000000" fill-rule="evenodd" stroke="none" stroke-width="0" stroke-linecap="square" stroke-linejoin="miter"/><path d="M228.02083,163.88769v0c3.16171,-8.82215 14.24578,-14.58417 25.28699,-13.14539" data-paper-data="{&quot;origPos&quot;:null}" fill-opacity="0" fill="#000000" fill-rule="evenodd" stroke="#ffffff" stroke-width="1" stroke-linecap="square" stroke-linejoin="miter"/><path d="M228.02083,163.88769v0c3.16171,-8.82215 14.24578,-14.58417 25.28699,-13.14539" data-paper-data="{&quot;origPos&quot;:null}" fill="none" fill-rule="evenodd" stroke="#ffffff" stroke-width="2" stroke-linecap="butt" stroke-linejoin="round"/><path d="M-119.79027,388.91669v-460.10047h763.69988v460.10047z" fill="none" fill-rule="nonzero" stroke="none" stroke-width="2" stroke-linecap="butt" stroke-linejoin="miter"/></g></g></svg>