<svg version="1.1" xmlns="http://www.w3.org/2000/svg" xmlns:xlink="http://www.w3.org/1999/xlink" width="763.69988" height="460.10047" viewBox="0,0,763.69988,460.10047"><g transform="translate(119.79027,71.18378)"><g data-paper-data="{&quot;isPaintingLayer&quot;:true}" stroke-miterlimit="10" stroke-dasharray="" stroke-dashoffset="0" style="mix-blend-mode: normal"><path d="M207.87406,180.00001v0c0,-17.74267 14.3833,-32.12598 32.126,-32.12598v0c8.52032,0 16.69172,3.38467 22.7165,9.40948c6.02478,6.02478 9.40949,14.19617 9.40949,22.71649v0c0,17.74271 -14.38331,32.12597 -32.12598,32.12597v0c-17.7427,0 -32.126,-14.38327 -32.126,-32.12597z" data-paper-data="{&quot;origPos&quot;:null}" fill-opacity="0" fill="#000000" fill-rule="evenodd" stroke="none" stroke-width="1" stroke-linecap="square" stroke-linejoin="miter"/><path d="M217.28353,157.28352l45.43302,45.43298M262.71653,157.28352l-45.43302,45.43298" data-paper-data="{&quot;origPos&quot;:null}" fill-opacity="0" fill="#000000" fill-rule="evenodd" stroke="none" stroke-width="1" stroke-linecap="square" stroke-linejoin="miter"/><path d="M207.87406,180.00001v0c0,-17.74267 14.3833,-32.12598 32.126,-32.12598v0c8.52032,0 16.69172,3.38467 22.7165,9.40948c6.02478,6.02478 9.40949,14.19617 9.40949,22.71649v0c0,17.74271 -14.38331,32.12597 -32.12598,32.12597v0c-17.7427,0 -32.126,-14.38327 -32.126,-32.12597z" data-paper-data="{&quot;origPos&quot;:null}" fill-opacity="0" fill="#000000" fill-rule="evenodd" stroke="none" stroke-width="1" stroke-linecap="square" stroke-linejoin="miter"/><path d="M207.87406,180.00001v0c0,-17.74267 14.3833,-32.12598 32.126,-32.12598v0c8.52032,0 16.69172,3.38467 22.7165,9.40948c6.02478,6.02478 9.40949,14.19617 9.40949,22.71649v0c0,17.74271 -14.38331,32.12597 -32.12598,32.12597v0c-17.7427,0 -32.126,-14.38327 -32.126,-32.12597z" data-paper-data="{&quot;origPos&quot;:null}" fill="none" fill-rule="evenodd" stroke="#ffffff" stroke-width="2" stroke-linecap="butt" stroke-linejoin="round"/><path d="M240.00005,161.10236v37.79529M221.1024,180.00001h37.79526" data-paper-data="{&quot;origPos&quot;:null}" fill-opacity="0" fill="#000000" fill-rule="evenodd" stroke="none" stroke-width="1" stroke-linecap="square" stroke-linejoin="miter"/><path d="M221.1024,180.00001v0c0,-10.43689 8.46075,-18.89765 18.89764,-18.89765v0c5.01197,0 9.81864,1.991 13.36264,5.53501c3.54397,3.54397 5.53497,8.35068 5.53497,13.36264v0c0,10.43689 -8.46075,18.89764 -18.89761,18.89764v0c-10.43689,0 -18.89764,-8.46075 -18.89764,-18.89764z" data-paper-data="{&quot;origPos&quot;:null}" fill-opacity="0" fill="#000000" fill-rule="evenodd" stroke="none" stroke-width="1" stroke-linecap="square" stroke-linejoin="miter"/><path d="M255.00005,164.49395l-8.66667,-3.33333c0,0 -1.89694,11.75644 -0.33753,18.85446c2.21313,10.07355 10.33753,25.47888 10.33753,25.47888l-16.33333,-8.66667l-17,8c0,0 9.25497,-13.10293 11.97837,-23.83633c1.69958,-6.69834 -0.31171,-19.83033 -0.31171,-19.83033l-10,3l16,-15.66667z" fill="none" fill-rule="nonzero" stroke="#ffffff" stroke-width="2" stroke-linecap="round" stroke-linejoin="miter"/><path d="M-119.79027,388.91669v-460.10047h763.69988v460.10047z" fill="none" fill-rule="nonzero" stroke="none" stroke-width="2" stroke-linecap="butt" stroke-linejoin="miter"/></g></g></svg>